<svg width="60" height="60" viewBox="0 0 60 60" fill="none" xmlns="http://www.w3.org/2000/svg">
<circle cx="30" cy="30" r="30" fill="#2C2C2C"/>
<circle cx="30" cy="30" r="22" fill="#7A66CC"/>
<g clip-path="url(#clip0_1_184)">
<path d="M25.078 40.55C24.605 40.234 24.185 39.847 23.834 39.4C23.451 38.937 23.096 38.45 22.77 37.946C22.004 36.826 21.405 35.601 20.99 34.31C20.49 32.808 20.247 31.37 20.247 29.963C20.247 28.393 20.587 27.023 21.249 25.873C21.739 24.973 22.469 24.22 23.349 23.691C24.199 23.161 25.189 22.871 26.189 22.851C26.539 22.851 26.919 22.901 27.319 23.001C27.609 23.081 27.959 23.211 28.389 23.371C28.939 23.581 29.239 23.711 29.339 23.741C29.659 23.861 29.929 23.911 30.139 23.911C30.299 23.911 30.529 23.861 30.784 23.781C30.929 23.731 31.204 23.641 31.594 23.471C31.98 23.331 32.286 23.211 32.529 23.121C32.899 23.011 33.257 22.911 33.579 22.861C33.969 22.801 34.356 22.781 34.727 22.811C35.437 22.861 36.087 23.011 36.667 23.231C37.687 23.641 38.51 24.281 39.124 25.191C38.864 25.351 38.624 25.537 38.399 25.741C37.912 26.171 37.499 26.681 37.169 27.246C36.739 28.016 36.519 28.886 36.525 29.766C36.54 30.849 36.815 31.801 37.365 32.626C37.752 33.226 38.269 33.74 38.899 34.162C39.209 34.372 39.481 34.517 39.739 34.612C39.619 34.987 39.487 35.352 39.334 35.712C38.987 36.519 38.574 37.292 38.084 38.022C37.652 38.652 37.312 39.122 37.054 39.432C36.652 39.912 36.264 40.272 35.874 40.529C35.444 40.814 34.939 40.965 34.422 40.965C34.072 40.98 33.722 40.935 33.388 40.838C33.098 40.743 32.812 40.636 32.532 40.515C32.239 40.381 31.936 40.267 31.627 40.175C31.247 40.075 30.857 40.027 30.463 40.028C30.063 40.028 29.673 40.078 29.303 40.173C28.993 40.261 28.693 40.369 28.396 40.498C27.976 40.673 27.701 40.788 27.541 40.838C27.217 40.934 26.885 40.992 26.551 41.013C26.031 41.013 25.547 40.863 25.065 40.563L25.078 40.55ZM31.932 22.09C31.252 22.43 30.606 22.574 29.959 22.526C29.859 21.88 29.959 21.216 30.229 20.489C30.469 19.869 30.789 19.309 31.229 18.809C31.689 18.289 32.239 17.859 32.859 17.549C33.519 17.209 34.149 17.029 34.749 16.999C34.829 17.679 34.749 18.349 34.499 19.069C34.271 19.709 33.931 20.299 33.499 20.829C33.064 21.349 32.524 21.779 31.913 22.089L31.932 22.09Z" fill="white"/>
</g>
<defs>
<clipPath id="clip0_1_184">
<rect width="24" height="24" fill="white" transform="translate(18 17)"/>
</clipPath>
</defs>
</svg>
